<svg xmlns="http://www.w3.org/2000/svg">
	<symbol id="clock" viewBox="0 0 25 25">
		<g>
			<path fill-rule="evenodd" clip-rule="evenodd"
				d="M2.3 12.5C2.3 18.1219 6.87807 22.7 12.5 22.7C18.1219 22.7 22.7 18.1219 22.7 12.5C22.7 6.87807 18.1219 2.3 12.5 2.3C6.87807 2.3 2.3 6.87807 2.3 12.5ZM0 12.5C0 19.3922 5.60781 25 12.5 25C19.3922 25 25 19.3922 25 12.5C25 5.60781 19.3922 0 12.5 0C5.60781 0 0 5.60781 0 12.5Z" />
			<path fill-rule="evenodd" clip-rule="evenodd"
				d="M12.4996 6.09998C13.1347 6.09998 13.6496 6.61485 13.6496 7.24998V12.225H18.6246C19.2597 12.225 19.7746 12.7398 19.7746 13.375C19.7746 14.0101 19.2597 14.525 18.6246 14.525H11.3496V7.24998C11.3496 6.61485 11.8645 6.09998 12.4996 6.09998Z" />
		</g>
	</symbol>

	<symbol id="location" viewBox="0 0 20 24">
		<g>
			<path
				d="M10 12C8.625 12 7.5 10.92 7.5 9.6C7.5 8.28 8.625 7.2 10 7.2C11.375 7.2 12.5 8.28 12.5 9.6C12.5 10.92 11.375 12 10 12ZM17.5 9.84C17.5 5.484 14.1875 2.4 10 2.4C5.8125 2.4 2.5 5.484 2.5 9.84C2.5 12.648 4.9375 16.368 10 20.808C15.0625 16.368 17.5 12.648 17.5 9.84ZM10 0C15.25 0 20 3.864 20 9.84C20 13.824 16.6625 18.54 10 24C3.3375 18.54 0 13.824 0 9.84C0 3.864 4.75 0 10 0Z" />
		</g>
	</symbol>

	<symbol id="brackets" viewBox="0 0 38 22">
		<g>
			<path
				d="M10.096 21.88H0.304001L9.52 0.0879822H15.76L10.096 21.88ZM27.736 0.0879822H37.432L28.216 21.88H22.072L27.736 0.0879822Z" />
		</g>
	</symbol>
</svg>