<svg xmlns="http://www.w3.org/2000/svg">
	<symbol id="support" viewBox="0 0 26 26">
		<g>
			<path
				d="M12.9121 0.626465C6.10683 0.626465 0.570312 6.16298 0.570312 12.9682V18.0814C0.570312 19.3452 1.67737 20.3733 3.03867 20.3733H4.27284C4.60017 20.3733 4.91409 20.2433 5.14554 20.0118C5.37699 19.7804 5.50702 19.4664 5.50702 19.1391V12.7918C5.50702 12.4644 5.37699 12.1505 5.14554 11.9191C4.91409 11.6876 4.60017 11.5576 4.27284 11.5576H3.15221C3.83841 6.78131 7.94823 3.09482 12.9121 3.09482C17.8759 3.09482 21.9858 6.78131 22.672 11.5576H21.5513C21.224 11.5576 20.9101 11.6876 20.6786 11.9191C20.4472 12.1505 20.3172 12.4644 20.3172 12.7918V20.3733C20.3172 21.7346 19.2101 22.8417 17.8488 22.8417H15.3804V21.6075H10.4437V25.31H17.8488C20.5714 25.31 22.7855 23.0959 22.7855 20.3733C24.1468 20.3733 25.2539 19.3452 25.2539 18.0814V12.9682C25.2539 6.16298 19.7173 0.626465 12.9121 0.626465Z" />
		</g>
	</symbol>
	<symbol id="account" viewBox="0 0 26 28">
		<g>
			<path
				d="M15.82 24.8824L13 27.7024L10.18 24.8824C4.6375 23.6024 0.5 18.6324 0.5 12.7024C0.5 5.80239 6.1 0.202393 13 0.202393C19.9 0.202393 25.5 5.80239 25.5 12.7024C25.5 18.6324 21.3625 23.6024 15.82 24.8824ZM5.52875 16.9724C7.36375 19.7099 10.1187 21.4524 13.2 21.4524C16.28 21.4524 19.0362 19.7111 20.87 16.9724C18.7897 15.0281 16.0474 13.9484 13.2 13.9524C10.3521 13.9481 7.60939 15.0278 5.52875 16.9724V16.9724ZM13 11.4524C13.9946 11.4524 14.9484 11.0573 15.6517 10.354C16.3549 9.65078 16.75 8.69695 16.75 7.70239C16.75 6.70783 16.3549 5.754 15.6517 5.05074C14.9484 4.34748 13.9946 3.95239 13 3.95239C12.0054 3.95239 11.0516 4.34748 10.3483 5.05074C9.64509 5.754 9.25 6.70783 9.25 7.70239C9.25 8.69695 9.64509 9.65078 10.3483 10.354C11.0516 11.0573 12.0054 11.4524 13 11.4524V11.4524Z" />
		</g>
	</symbol>
	<symbol id="savings" viewBox="0 0 26 27">
		<g>
			<path
				d="M25.2047 1.22879C25.1293 1.04096 24.9844 0.889434 24.8001 0.805738C24.6158 0.722043 24.4063 0.712622 24.2152 0.779436C24.0242 0.84625 23.8662 0.984155 23.7742 1.16446C23.6823 1.34477 23.6633 1.55359 23.7214 1.74749C24.9291 5.21849 22.5319 7.81069 20.7041 9.19909L19.9657 8.14089C19.7174 7.78599 19.1623 7.49089 18.7307 7.48569L14.5863 7.50389C14.08 7.51918 13.5873 7.671 13.1602 7.94329L0.948006 16.5064C0.663949 16.7063 0.470671 17.0106 0.410489 17.3527C0.350307 17.6948 0.428126 18.0468 0.626906 18.3316L6.17661 26.272C6.59261 26.8635 7.25691 26.792 7.84971 26.3786L20.0619 17.8142C20.4129 17.5659 20.8185 17.0303 20.9615 16.6208L22.2589 12.5323C22.4019 12.1241 22.3148 11.5014 22.0665 11.1465L21.6167 10.5017C24.0711 8.62059 26.6191 5.29649 25.2047 1.22879ZM19.5224 13.3942C19.2974 13.5517 19.0436 13.6633 18.7755 13.7226C18.5074 13.782 18.2302 13.788 17.9597 13.7401C17.6893 13.6923 17.431 13.5917 17.1994 13.444C16.9679 13.2963 16.7678 13.1045 16.6104 12.8794C16.2918 12.4239 16.1669 11.8607 16.2632 11.3133C16.3595 10.7659 16.669 10.279 17.1239 9.95959C17.4805 9.70975 17.9063 9.57758 18.3416 9.58154C18.777 9.5855 19.2003 9.72541 19.5523 9.98169C19.1987 10.1949 18.9556 10.3197 18.9101 10.3392C18.749 10.416 18.6187 10.5453 18.5406 10.7059C18.4626 10.8665 18.4414 11.0488 18.4805 11.223C18.5196 11.3971 18.6168 11.5529 18.756 11.6646C18.8952 11.7764 19.0683 11.8376 19.2468 11.8381C19.3586 11.8381 19.473 11.8121 19.5809 11.7614C19.8331 11.6418 20.1035 11.5001 20.3856 11.3324C20.4505 11.7225 20.4039 12.123 20.2512 12.4877C20.0985 12.8525 19.8459 13.1667 19.5224 13.3942Z" />
		</g>
	</symbol>
</svg>