<svg xmlns="http://www.w3.org/2000/svg">
	<symbol id="clock" viewBox="0 0 25 25">
		<g>
			<path fill-rule="evenodd" clip-rule="evenodd"
				d="M2.3 12.5C2.3 18.1219 6.87807 22.7 12.5 22.7C18.1219 22.7 22.7 18.1219 22.7 12.5C22.7 6.87807 18.1219 2.3 12.5 2.3C6.87807 2.3 2.3 6.87807 2.3 12.5ZM0 12.5C0 19.3922 5.60781 25 12.5 25C19.3922 25 25 19.3922 25 12.5C25 5.60781 19.3922 0 12.5 0C5.60781 0 0 5.60781 0 12.5Z" />
			<path fill-rule="evenodd" clip-rule="evenodd"
				d="M12.4996 6.09998C13.1347 6.09998 13.6496 6.61485 13.6496 7.24998V12.225H18.6246C19.2597 12.225 19.7746 12.7398 19.7746 13.375C19.7746 14.0101 19.2597 14.525 18.6246 14.525H11.3496V7.24998C11.3496 6.61485 11.8645 6.09998 12.4996 6.09998Z" />
		</g>
	</symbol>
	<symbol id="location" viewBox="0 0 20 24">
		<g>
			<path
				d="M10 12C8.625 12 7.5 10.92 7.5 9.6C7.5 8.28 8.625 7.2 10 7.2C11.375 7.2 12.5 8.28 12.5 9.6C12.5 10.92 11.375 12 10 12ZM17.5 9.84C17.5 5.484 14.1875 2.4 10 2.4C5.8125 2.4 2.5 5.484 2.5 9.84C2.5 12.648 4.9375 16.368 10 20.808C15.0625 16.368 17.5 12.648 17.5 9.84ZM10 0C15.25 0 20 3.864 20 9.84C20 13.824 16.6625 18.54 10 24C3.3375 18.54 0 13.824 0 9.84C0 3.864 4.75 0 10 0Z" />
		</g>
	</symbol>
	<symbol id="delet" viewBox="0 0 8 8">
		<g>
			<path fill-rule="evenodd" clip-rule="evenodd"
				d="M0.646447 0.646447C0.841709 0.451184 1.15829 0.451184 1.35355 0.646447L7.85355 7.14645C8.04882 7.34171 8.04882 7.65829 7.85355 7.85355C7.65829 8.04882 7.34171 8.04882 7.14645 7.85355L0.646447 1.35355C0.451184 1.15829 0.451184 0.841709 0.646447 0.646447Z" />
			<path fill-rule="evenodd" clip-rule="evenodd"
				d="M7.85355 0.646447C7.65829 0.451184 7.34171 0.451184 7.14645 0.646447L0.646447 7.14645C0.451184 7.34171 0.451184 7.65829 0.646447 7.85355C0.841709 8.04882 1.15829 8.04882 1.35355 7.85355L7.85355 1.35355C8.04882 1.15829 8.04882 0.841709 7.85355 0.646447Z" />
		</g>
	</symbol>
	<symbol id="change" viewBox="0 0 11 11">
		<g>
			<path
				d="M1.04665 10.7436H1.10199L3.66623 10.5099C3.94712 10.4819 4.20984 10.3581 4.41029 10.1594L9.94461 4.62506C10.1594 4.39813 10.2755 4.0953 10.2674 3.78294C10.2594 3.47057 10.1278 3.17414 9.90156 2.95861L8.21667 1.27371C7.99677 1.06716 7.70861 0.94864 7.40702 0.940703C7.10542 0.932766 6.81143 1.03597 6.58097 1.23067L1.04665 6.76499C0.847883 6.96544 0.724122 7.22816 0.69614 7.50905L0.431723 10.0733C0.423439 10.1634 0.435126 10.2541 0.46595 10.3392C0.496774 10.4242 0.545977 10.5014 0.610051 10.5652C0.667509 10.6222 0.735653 10.6673 0.810574 10.6979C0.885495 10.7285 0.965719 10.744 1.04665 10.7436ZM7.36192 2.13461L9.04067 3.81335L7.81082 5.01246L6.16282 3.36446L7.36192 2.13461ZM1.88909 7.61359L5.35112 4.17616L7.01142 5.83646L3.56784 9.28004L1.72306 9.45222L1.88909 7.61359Z" />
		</g>
	</symbol>
</svg>