<svg xmlns="http://www.w3.org/2000/svg">
	<symbol id="change" viewBox="0 0 11 11">
		<g>
			<path
				d="M1.04665 10.7436H1.10199L3.66623 10.5099C3.94712 10.4819 4.20984 10.3581 4.41029 10.1594L9.94461 4.62506C10.1594 4.39813 10.2755 4.0953 10.2674 3.78294C10.2594 3.47057 10.1278 3.17414 9.90156 2.95861L8.21667 1.27371C7.99677 1.06716 7.70861 0.94864 7.40702 0.940703C7.10542 0.932766 6.81143 1.03597 6.58097 1.23067L1.04665 6.76499C0.847883 6.96544 0.724122 7.22816 0.69614 7.50905L0.431723 10.0733C0.423439 10.1634 0.435126 10.2541 0.46595 10.3392C0.496774 10.4242 0.545977 10.5014 0.610051 10.5652C0.667509 10.6222 0.735653 10.6673 0.810574 10.6979C0.885495 10.7285 0.965719 10.744 1.04665 10.7436ZM7.36192 2.13461L9.04067 3.81335L7.81082 5.01246L6.16282 3.36446L7.36192 2.13461ZM1.88909 7.61359L5.35112 4.17616L7.01142 5.83646L3.56784 9.28004L1.72306 9.45222L1.88909 7.61359Z" />
		</g>
	</symbol>
	<symbol id="more" viewBox="0 0 6 5">
		<g>
			<path fill-rule="evenodd" clip-rule="evenodd"
				d="M0.434312 1.20354C0.746731 0.891118 1.25326 0.891118 1.56568 1.20354L3 2.63785L4.43431 1.20354C4.74673 0.891118 5.25326 0.891118 5.56568 1.20354C5.8781 1.51596 5.8781 2.02249 5.56568 2.33491L3 4.90059L0.434312 2.33491C0.121892 2.02249 0.121892 1.51596 0.434312 1.20354Z" />
		</g>
	</symbol>
	<symbol id="close" viewBox="0 0 15 15">
		<g>
			<path fill-rule="evenodd" clip-rule="evenodd"
				d="M0.997956 0.99759C1.46659 0.528961 2.22638 0.528961 2.69501 0.99759L14.0028 12.3054C14.4714 12.774 14.4714 13.5338 14.0028 14.0024C13.5341 14.471 12.7743 14.471 12.3057 14.0024L0.997956 2.69465C0.529327 2.22602 0.529327 1.46622 0.997956 0.99759Z" />
			<path fill-rule="evenodd" clip-rule="evenodd"
				d="M14.002 0.99759C13.5334 0.528961 12.7736 0.528961 12.305 0.99759L0.997224 12.3054C0.528594 12.774 0.528594 13.5338 0.997224 14.0024C1.46585 14.471 2.22565 14.471 2.69428 14.0024L14.002 2.69465C14.4707 2.22602 14.4707 1.46622 14.002 0.99759Z" />
		</g>
	</symbol>
</svg>