<svg xmlns="http://www.w3.org/2000/svg">
	<symbol id="search" viewBox="0 0 17 16">
		<g>
			<path fill-rule="evenodd" clip-rule="evenodd"
				d="M12.5024 10.4261C13.4896 9.15341 13.9548 7.5524 13.8035 5.94883C13.6521 4.34525 12.8956 2.85955 11.6877 1.794C10.4798 0.728435 8.9114 0.163054 7.30147 0.212872C5.69154 0.26269 4.16105 0.923965 3.02138 2.06217C1.88071 3.20116 1.21727 4.73224 1.16626 6.34339C1.11525 7.95455 1.68051 9.52453 2.74685 10.7334C3.81318 11.9423 5.30034 12.699 6.90527 12.8495C8.5102 12.9999 10.1121 12.5328 11.3845 11.5432L11.4186 11.5788L14.7768 14.9378C14.8504 15.0114 14.9377 15.0697 15.0338 15.1095C15.1299 15.1494 15.2329 15.1698 15.3369 15.1698C15.441 15.1698 15.544 15.1494 15.6401 15.1095C15.7362 15.0697 15.8235 15.0114 15.897 14.9378C15.9706 14.8643 16.0289 14.777 16.0687 14.6809C16.1086 14.5848 16.129 14.4818 16.129 14.3777C16.129 14.2737 16.1086 14.1707 16.0687 14.0746C16.0289 13.9785 15.9706 13.8912 15.897 13.8176L12.538 10.4594C12.5264 10.448 12.5146 10.4369 12.5024 10.4261ZM10.8589 3.18238C11.3059 3.62213 11.6613 4.14603 11.9048 4.72386C12.1483 5.30169 12.275 5.92201 12.2775 6.54903C12.2801 7.17606 12.1585 7.79739 11.9197 8.37718C11.6809 8.95697 11.3297 9.48375 10.8863 9.92713C10.443 10.3705 9.91618 10.7217 9.33639 10.9605C8.7566 11.1993 8.13527 11.3209 7.50824 11.3183C6.88121 11.3158 6.26089 11.1891 5.68307 10.9456C5.10524 10.7021 4.58134 10.3466 4.14158 9.89967C3.26277 9.00642 2.77252 7.8021 2.77762 6.54903C2.78272 5.29597 3.28276 4.09568 4.16882 3.20962C5.05488 2.32356 6.25517 1.82352 7.50824 1.81841C8.76131 1.81331 9.96563 2.30356 10.8589 3.18238Z" />
			<path fill-rule="evenodd" clip-rule="evenodd"
				d="M15.8968 13.8176C15.9704 13.8912 16.0287 13.9785 16.0686 14.0746C16.1084 14.1707 16.1288 14.2737 16.1288 14.3777C16.1288 14.4817 16.1084 14.5847 16.0686 14.6808C16.0287 14.7769 15.9704 14.8643 15.8968 14.9378C15.8233 15.0114 15.736 15.0697 15.6399 15.1095C15.5438 15.1493 15.4408 15.1698 15.3367 15.1698C15.2327 15.1698 15.1297 15.1493 15.0336 15.1095C14.9375 15.0697 14.8502 15.0114 14.7766 14.9378L11.4184 11.5788L11.3843 11.5432C10.1119 12.5328 8.51 12.9999 6.90508 12.8495C5.30015 12.699 3.81299 11.9422 2.74665 10.7334C1.68032 9.52452 1.11506 7.95454 1.16607 6.34338C1.21707 4.73223 1.88051 3.20115 3.02118 2.06216C4.16086 0.923953 5.69134 0.262678 7.30127 0.21286C8.91121 0.163042 10.4796 0.728423 11.6875 1.79398C12.8954 2.85954 13.6519 4.34524 13.8033 5.94881C13.9546 7.55239 13.4894 9.15339 12.5022 10.4261C12.5144 10.4369 12.5262 10.448 12.5378 10.4594L15.8968 13.8176ZM12.7676 10.4063C13.7122 9.11744 14.1529 7.52497 14.0024 5.93002C13.8463 4.27581 13.0658 2.74321 11.8198 1.644C10.5738 0.544798 8.95585 -0.0384353 7.29509 0.0129558C5.63432 0.0643469 4.05551 0.746502 2.87985 1.92064C1.70316 3.0956 1.01878 4.67502 0.966166 6.33705C0.913546 7.99909 1.49666 9.61864 2.59667 10.8657C3.69668 12.1127 5.2308 12.8934 6.88641 13.0486C8.48286 13.1983 10.0764 12.7555 11.3651 11.8084L14.6352 15.0792C14.7273 15.1714 14.8367 15.2444 14.9571 15.2943C15.0774 15.3442 15.2065 15.3698 15.3367 15.3698C15.467 15.3698 15.596 15.3442 15.7164 15.2943C15.8368 15.2444 15.9461 15.1714 16.0383 15.0792C16.1304 14.9871 16.2035 14.8777 16.2533 14.7574C16.3032 14.637 16.3288 14.508 16.3288 14.3777C16.3288 14.2474 16.3032 14.1184 16.2533 13.9981C16.2035 13.8777 16.1304 13.7683 16.0383 13.6762L12.7676 10.4063ZM11.7203 4.80151C11.4871 4.24801 11.1466 3.74617 10.7184 3.32493C9.86278 2.48312 8.70917 2.01351 7.50886 2.0184C6.30855 2.02329 5.1588 2.50227 4.31005 3.35103C3.4613 4.19978 2.98231 5.34953 2.97742 6.54984C2.97254 7.75014 3.44214 8.90376 4.28396 9.75939C4.70519 10.1875 5.20704 10.5281 5.76053 10.7613C6.31403 10.9945 6.90823 11.1159 7.50886 11.1183C8.10949 11.1208 8.70466 11.0043 9.26003 10.7756C9.81541 10.5468 10.32 10.2104 10.7447 9.7857C11.1694 9.36099 11.5059 8.85639 11.7346 8.30101C11.9633 7.74563 12.0798 7.15046 12.0773 6.54984C12.0749 5.94921 11.9536 5.35501 11.7203 4.80151ZM11.9046 4.72385C11.6611 4.14602 11.3057 3.62212 10.8587 3.18236C9.96543 2.30355 8.76111 1.8133 7.50805 1.8184C6.25498 1.8235 5.05469 2.32355 4.16863 3.20961C3.28257 4.09566 2.78253 5.29596 2.77743 6.54902C2.77232 7.80209 3.26257 9.00641 4.14139 9.89966C4.58114 10.3466 5.10504 10.7021 5.68287 10.9456C6.2607 11.1891 6.88102 11.3158 7.50805 11.3183C8.13507 11.3209 8.7564 11.1993 9.33619 10.9605C9.91599 10.7217 10.4428 10.3705 10.8861 9.92712C11.3295 9.48374 11.6807 8.95696 11.9195 8.37717C12.1583 7.79738 12.2799 7.17605 12.2773 6.54902C12.2748 5.92199 12.1481 5.30167 11.9046 4.72385Z" />
		</g>
	</symbol>
	<symbol id="close" viewBox="0 0 15 15">
		<g>
			<path fill-rule="evenodd" clip-rule="evenodd"
				d="M0.997956 0.99759C1.46659 0.528961 2.22638 0.528961 2.69501 0.99759L14.0028 12.3054C14.4714 12.774 14.4714 13.5338 14.0028 14.0024C13.5341 14.471 12.7743 14.471 12.3057 14.0024L0.997956 2.69465C0.529327 2.22602 0.529327 1.46622 0.997956 0.99759Z" />
			<path fill-rule="evenodd" clip-rule="evenodd"
				d="M14.002 0.99759C13.5334 0.528961 12.7736 0.528961 12.305 0.99759L0.997224 12.3054C0.528594 12.774 0.528594 13.5338 0.997224 14.0024C1.46585 14.471 2.22565 14.471 2.69428 14.0024L14.002 2.69465C14.4707 2.22602 14.4707 1.46622 14.002 0.99759Z" />
		</g>
	</symbol>
	<symbol id="cart" viewBox="0 0 19 17">
		<g>
			<path
				d="M11.5834 16.8334C12.1359 16.8334 12.6658 16.6139 13.0566 16.2232C13.4473 15.8325 13.6667 15.3026 13.6667 14.75C13.6667 14.1975 13.4473 13.6676 13.0566 13.2769C12.6658 12.8862 12.1359 12.6667 11.5834 12.6667C11.0309 12.6667 10.501 12.8862 10.1103 13.2769C9.71957 13.6676 9.50008 14.1975 9.50008 14.75C9.50008 15.3026 9.71957 15.8325 10.1103 16.2232C10.501 16.6139 11.0309 16.8334 11.5834 16.8334ZM4.29174 16.8334C4.84428 16.8334 5.37418 16.6139 5.76488 16.2232C6.15558 15.8325 6.37508 15.3026 6.37508 14.75C6.37508 14.1975 6.15558 13.6676 5.76488 13.2769C5.37418 12.8862 4.84428 12.6667 4.29174 12.6667C3.73921 12.6667 3.20931 12.8862 2.81861 13.2769C2.4279 13.6676 2.20841 14.1975 2.20841 14.75C2.20841 15.3026 2.4279 15.8325 2.81861 16.2232C3.20931 16.6139 3.73921 16.8334 4.29174 16.8334ZM17.873 2.16981C18.133 2.16142 18.3796 2.05223 18.5606 1.86531C18.7416 1.6784 18.8428 1.42842 18.8428 1.16825C18.8428 0.908074 18.7416 0.658098 18.5606 0.471184C18.3796 0.284271 18.133 0.175074 17.873 0.166687H16.674C15.7345 0.166687 14.922 0.81877 14.7178 1.73544L13.4126 7.61252C13.2084 8.52919 12.3959 9.18127 11.4563 9.18127H3.63133L2.12924 3.17085H11.8636C12.1212 3.1591 12.3644 3.0485 12.5425 2.86205C12.7206 2.67561 12.82 2.42767 12.82 2.16981C12.82 1.91195 12.7206 1.66401 12.5425 1.47757C12.3644 1.29113 12.1212 1.18052 11.8636 1.16877H2.12924C1.82473 1.16868 1.5242 1.23802 1.25051 1.37151C0.976816 1.50501 0.737162 1.69915 0.549763 1.93917C0.362364 2.17919 0.232155 2.45878 0.169035 2.75668C0.105913 3.05458 0.111544 3.36295 0.185495 3.65835L1.68758 9.66669C1.79586 10.1002 2.046 10.4851 2.39821 10.7601C2.75042 11.0351 3.18447 11.1845 3.63133 11.1844H11.4563C12.368 11.1845 13.2524 10.8737 13.9636 10.3032C14.6748 9.73281 15.1701 8.93687 15.3678 8.04689L16.674 2.16981H17.873Z" />
		</g>
	</symbol>
	<symbol id="profile" viewBox="0 0 12 12">
		<g>
			<path
				d="M6 0C6.79565 0 7.55871 0.31607 8.12132 0.87868C8.68393 1.44129 9 2.20435 9 3C9 3.79565 8.68393 4.55871 8.12132 5.12132C7.55871 5.68393 6.79565 6 6 6C5.20435 6 4.44129 5.68393 3.87868 5.12132C3.31607 4.55871 3 3.79565 3 3C3 2.20435 3.31607 1.44129 3.87868 0.87868C4.44129 0.31607 5.20435 0 6 0ZM6 7.5C9.315 7.5 12 8.8425 12 10.5V12H0V10.5C0 8.8425 2.685 7.5 6 7.5Z" />
		</g>
	</symbol>
</svg>